<svg xmlns="http://www.w3.org/2000/svg" width="960" height="610" viewBox="0 0 960 610" font-family="Helvetica, Arial, sans-serif">
<rect width="960" height="610" fill="white"/>
<text x="480.0" y="26" font-size="18" text-anchor="middle" font-weight="bold" fill="#111827">depth=1 QP scaling, pipeline=8 (2026-07-27)</text>
<text x="90" y="72" font-size="13" text-anchor="start" font-weight="bold" fill="#111827">remote GET M/s</text>
<line x1="90" y1="90" x2="90" y2="290" stroke="#374151"/>
<line x1="90" y1="290" x2="925" y2="290" stroke="#374151"/>
<line x1="90" y1="290.0" x2="925" y2="290.0" stroke="#e5e7eb"/>
<text x="82" y="294.0" font-size="11" text-anchor="end" font-weight="normal" fill="#111827">0.0</text>
<line x1="90" y1="240.0" x2="925" y2="240.0" stroke="#e5e7eb"/>
<text x="82" y="244.0" font-size="11" text-anchor="end" font-weight="normal" fill="#111827">0.3</text>
<line x1="90" y1="190.0" x2="925" y2="190.0" stroke="#e5e7eb"/>
<text x="82" y="194.0" font-size="11" text-anchor="end" font-weight="normal" fill="#111827">0.6</text>
<line x1="90" y1="140.0" x2="925" y2="140.0" stroke="#e5e7eb"/>
<text x="82" y="144.0" font-size="11" text-anchor="end" font-weight="normal" fill="#111827">0.9</text>
<line x1="90" y1="90.0" x2="925" y2="90.0" stroke="#e5e7eb"/>
<text x="82" y="94.0" font-size="11" text-anchor="end" font-weight="normal" fill="#111827">1.2</text>
<text x="90.0" y="310" font-size="11" text-anchor="middle" font-weight="normal" fill="#111827">1</text>
<text x="145.66666666666666" y="310" font-size="11" text-anchor="middle" font-weight="normal" fill="#111827">2</text>
<text x="201.33333333333331" y="310" font-size="11" text-anchor="middle" font-weight="normal" fill="#111827">3</text>
<text x="257.0" y="310" font-size="11" text-anchor="middle" font-weight="normal" fill="#111827">4</text>
<text x="312.66666666666663" y="310" font-size="11" text-anchor="middle" font-weight="normal" fill="#111827">5</text>
<text x="368.3333333333333" y="310" font-size="11" text-anchor="middle" font-weight="normal" fill="#111827">6</text>
<text x="424.0" y="310" font-size="11" text-anchor="middle" font-weight="normal" fill="#111827">7</text>
<text x="479.66666666666663" y="310" font-size="11" text-anchor="middle" font-weight="normal" fill="#111827">8</text>
<text x="535.3333333333333" y="310" font-size="11" text-anchor="middle" font-weight="normal" fill="#111827">9</text>
<text x="591.0" y="310" font-size="11" text-anchor="middle" font-weight="normal" fill="#111827">10</text>
<text x="646.6666666666666" y="310" font-size="11" text-anchor="middle" font-weight="normal" fill="#111827">11</text>
<text x="702.3333333333333" y="310" font-size="11" text-anchor="middle" font-weight="normal" fill="#111827">12</text>
<text x="758.0" y="310" font-size="11" text-anchor="middle" font-weight="normal" fill="#111827">13</text>
<text x="813.6666666666666" y="310" font-size="11" text-anchor="middle" font-weight="normal" fill="#111827">14</text>
<text x="869.3333333333333" y="310" font-size="11" text-anchor="middle" font-weight="normal" fill="#111827">15</text>
<text x="925.0" y="310" font-size="11" text-anchor="middle" font-weight="normal" fill="#111827">16</text>
<polyline points="90.0,261.8 145.7,237.3 201.3,214.2 257.0,191.8 312.7,169.8 368.3,147.6 424.0,131.8 479.7,114.0 535.3,117.6 591.0,112.9 646.7,115.0 702.3,116.5 758.0,115.5 813.7,113.7 869.3,111.4 925.0,114.5" fill="none" stroke="#2563eb" stroke-width="3"/>
<circle cx="90.0" cy="261.8" r="4" fill="#2563eb"/>
<circle cx="145.7" cy="237.3" r="4" fill="#2563eb"/>
<circle cx="201.3" cy="214.2" r="4" fill="#2563eb"/>
<circle cx="257.0" cy="191.8" r="4" fill="#2563eb"/>
<circle cx="312.7" cy="169.8" r="4" fill="#2563eb"/>
<circle cx="368.3" cy="147.6" r="4" fill="#2563eb"/>
<circle cx="424.0" cy="131.8" r="4" fill="#2563eb"/>
<circle cx="479.7" cy="114.0" r="4" fill="#2563eb"/>
<circle cx="535.3" cy="117.6" r="4" fill="#2563eb"/>
<circle cx="591.0" cy="112.9" r="4" fill="#2563eb"/>
<circle cx="646.7" cy="115.0" r="4" fill="#2563eb"/>
<circle cx="702.3" cy="116.5" r="4" fill="#2563eb"/>
<circle cx="758.0" cy="115.5" r="4" fill="#2563eb"/>
<circle cx="813.7" cy="113.7" r="4" fill="#2563eb"/>
<circle cx="869.3" cy="111.4" r="4" fill="#2563eb"/>
<circle cx="925.0" cy="114.5" r="4" fill="#2563eb"/>
<rect x="90" y="53" width="13" height="4" fill="#2563eb"/>
<text x="108" y="60" font-size="12" text-anchor="start" font-weight="normal" fill="#111827">throughput</text>
<text x="90" y="332" font-size="13" text-anchor="start" font-weight="bold" fill="#111827">remote span us</text>
<line x1="90" y1="350" x2="90" y2="550" stroke="#374151"/>
<line x1="90" y1="550" x2="925" y2="550" stroke="#374151"/>
<line x1="90" y1="550.0" x2="925" y2="550.0" stroke="#e5e7eb"/>
<text x="82" y="554.0" font-size="11" text-anchor="end" font-weight="normal" fill="#111827">0.0</text>
<line x1="90" y1="500.0" x2="925" y2="500.0" stroke="#e5e7eb"/>
<text x="82" y="504.0" font-size="11" text-anchor="end" font-weight="normal" fill="#111827">8.4</text>
<line x1="90" y1="450.0" x2="925" y2="450.0" stroke="#e5e7eb"/>
<text x="82" y="454.0" font-size="11" text-anchor="end" font-weight="normal" fill="#111827">16.8</text>
<line x1="90" y1="400.0" x2="925" y2="400.0" stroke="#e5e7eb"/>
<text x="82" y="404.0" font-size="11" text-anchor="end" font-weight="normal" fill="#111827">25.2</text>
<line x1="90" y1="350.0" x2="925" y2="350.0" stroke="#e5e7eb"/>
<text x="82" y="354.0" font-size="11" text-anchor="end" font-weight="normal" fill="#111827">33.6</text>
<line x1="90" y1="371.4" x2="925" y2="371.4" stroke="#f59e0b" stroke-dasharray="6 5"/>
<text x="921" y="366.42857142857144" font-size="11" text-anchor="end" font-weight="normal" fill="#111827">30 us objective</text>
<text x="90.0" y="570" font-size="11" text-anchor="middle" font-weight="normal" fill="#111827">1</text>
<text x="145.66666666666666" y="570" font-size="11" text-anchor="middle" font-weight="normal" fill="#111827">2</text>
<text x="201.33333333333331" y="570" font-size="11" text-anchor="middle" font-weight="normal" fill="#111827">3</text>
<text x="257.0" y="570" font-size="11" text-anchor="middle" font-weight="normal" fill="#111827">4</text>
<text x="312.66666666666663" y="570" font-size="11" text-anchor="middle" font-weight="normal" fill="#111827">5</text>
<text x="368.3333333333333" y="570" font-size="11" text-anchor="middle" font-weight="normal" fill="#111827">6</text>
<text x="424.0" y="570" font-size="11" text-anchor="middle" font-weight="normal" fill="#111827">7</text>
<text x="479.66666666666663" y="570" font-size="11" text-anchor="middle" font-weight="normal" fill="#111827">8</text>
<text x="535.3333333333333" y="570" font-size="11" text-anchor="middle" font-weight="normal" fill="#111827">9</text>
<text x="591.0" y="570" font-size="11" text-anchor="middle" font-weight="normal" fill="#111827">10</text>
<text x="646.6666666666666" y="570" font-size="11" text-anchor="middle" font-weight="normal" fill="#111827">11</text>
<text x="702.3333333333333" y="570" font-size="11" text-anchor="middle" font-weight="normal" fill="#111827">12</text>
<text x="758.0" y="570" font-size="11" text-anchor="middle" font-weight="normal" fill="#111827">13</text>
<text x="813.6666666666666" y="570" font-size="11" text-anchor="middle" font-weight="normal" fill="#111827">14</text>
<text x="869.3333333333333" y="570" font-size="11" text-anchor="middle" font-weight="normal" fill="#111827">15</text>
<text x="925.0" y="570" font-size="11" text-anchor="middle" font-weight="normal" fill="#111827">16</text>
<polyline points="90.0,521.8 145.7,520.9 201.3,519.3 257.0,518.6 312.7,517.8 368.3,517.6 424.0,516.5 479.7,516.5 535.3,516.0 591.0,516.6 646.7,516.2 702.3,515.7 758.0,515.8 813.7,516.5 869.3,516.9 925.0,516.3" fill="none" stroke="#dc2626" stroke-width="3"/>
<circle cx="90.0" cy="521.8" r="4" fill="#dc2626"/>
<circle cx="145.7" cy="520.9" r="4" fill="#dc2626"/>
<circle cx="201.3" cy="519.3" r="4" fill="#dc2626"/>
<circle cx="257.0" cy="518.6" r="4" fill="#dc2626"/>
<circle cx="312.7" cy="517.8" r="4" fill="#dc2626"/>
<circle cx="368.3" cy="517.6" r="4" fill="#dc2626"/>
<circle cx="424.0" cy="516.5" r="4" fill="#dc2626"/>
<circle cx="479.7" cy="516.5" r="4" fill="#dc2626"/>
<circle cx="535.3" cy="516.0" r="4" fill="#dc2626"/>
<circle cx="591.0" cy="516.6" r="4" fill="#dc2626"/>
<circle cx="646.7" cy="516.2" r="4" fill="#dc2626"/>
<circle cx="702.3" cy="515.7" r="4" fill="#dc2626"/>
<circle cx="758.0" cy="515.8" r="4" fill="#dc2626"/>
<circle cx="813.7" cy="516.5" r="4" fill="#dc2626"/>
<circle cx="869.3" cy="516.9" r="4" fill="#dc2626"/>
<circle cx="925.0" cy="516.3" r="4" fill="#dc2626"/>
<rect x="90" y="313" width="13" height="4" fill="#dc2626"/>
<text x="108" y="320" font-size="12" text-anchor="start" font-weight="normal" fill="#111827">avg</text>
<polyline points="90.0,523.2 145.7,522.0 201.3,520.8 257.0,520.2 312.7,519.6 368.3,519.0 424.0,518.5 479.7,518.5 535.3,517.9 591.0,518.5 646.7,518.5 702.3,517.9 758.0,517.9 813.7,518.5 869.3,519.0 925.0,518.5" fill="none" stroke="#0d9488" stroke-width="3"/>
<circle cx="90.0" cy="523.2" r="4" fill="#0d9488"/>
<circle cx="145.7" cy="522.0" r="4" fill="#0d9488"/>
<circle cx="201.3" cy="520.8" r="4" fill="#0d9488"/>
<circle cx="257.0" cy="520.2" r="4" fill="#0d9488"/>
<circle cx="312.7" cy="519.6" r="4" fill="#0d9488"/>
<circle cx="368.3" cy="519.0" r="4" fill="#0d9488"/>
<circle cx="424.0" cy="518.5" r="4" fill="#0d9488"/>
<circle cx="479.7" cy="518.5" r="4" fill="#0d9488"/>
<circle cx="535.3" cy="517.9" r="4" fill="#0d9488"/>
<circle cx="591.0" cy="518.5" r="4" fill="#0d9488"/>
<circle cx="646.7" cy="518.5" r="4" fill="#0d9488"/>
<circle cx="702.3" cy="517.9" r="4" fill="#0d9488"/>
<circle cx="758.0" cy="517.9" r="4" fill="#0d9488"/>
<circle cx="813.7" cy="518.5" r="4" fill="#0d9488"/>
<circle cx="869.3" cy="519.0" r="4" fill="#0d9488"/>
<circle cx="925.0" cy="518.5" r="4" fill="#0d9488"/>
<rect x="240" y="313" width="13" height="4" fill="#0d9488"/>
<text x="258" y="320" font-size="12" text-anchor="start" font-weight="normal" fill="#111827">p50</text>
<polyline points="90.0,486.9 145.7,496.4 201.3,492.3 257.0,487.5 312.7,485.1 368.3,483.9 424.0,488.7 479.7,474.4 535.3,473.2 591.0,478.0 646.7,473.2 702.3,474.4 758.0,491.1 813.7,478.6 869.3,476.8 925.0,475.0" fill="none" stroke="#9333ea" stroke-width="3"/>
<circle cx="90.0" cy="486.9" r="4" fill="#9333ea"/>
<circle cx="145.7" cy="496.4" r="4" fill="#9333ea"/>
<circle cx="201.3" cy="492.3" r="4" fill="#9333ea"/>
<circle cx="257.0" cy="487.5" r="4" fill="#9333ea"/>
<circle cx="312.7" cy="485.1" r="4" fill="#9333ea"/>
<circle cx="368.3" cy="483.9" r="4" fill="#9333ea"/>
<circle cx="424.0" cy="488.7" r="4" fill="#9333ea"/>
<circle cx="479.7" cy="474.4" r="4" fill="#9333ea"/>
<circle cx="535.3" cy="473.2" r="4" fill="#9333ea"/>
<circle cx="591.0" cy="478.0" r="4" fill="#9333ea"/>
<circle cx="646.7" cy="473.2" r="4" fill="#9333ea"/>
<circle cx="702.3" cy="474.4" r="4" fill="#9333ea"/>
<circle cx="758.0" cy="491.1" r="4" fill="#9333ea"/>
<circle cx="813.7" cy="478.6" r="4" fill="#9333ea"/>
<circle cx="869.3" cy="476.8" r="4" fill="#9333ea"/>
<circle cx="925.0" cy="475.0" r="4" fill="#9333ea"/>
<rect x="390" y="313" width="13" height="4" fill="#9333ea"/>
<text x="408" y="320" font-size="12" text-anchor="start" font-weight="normal" fill="#111827">p99</text>
</svg>