<svg xmlns="http://www.w3.org/2000/svg" width="960" height="610" viewBox="0 0 960 610" font-family="Helvetica, Arial, sans-serif">
<rect width="960" height="610" fill="white"/>
<text x="480.0" y="26" font-size="18" text-anchor="middle" font-weight="bold" fill="#111827">QP x depth = 256 fixed window, pipeline=8 (2026-07-27)</text>
<text x="90" y="72" font-size="13" text-anchor="start" font-weight="bold" fill="#111827">remote GET M/s</text>
<line x1="90" y1="90" x2="90" y2="290" stroke="#374151"/>
<line x1="90" y1="290" x2="925" y2="290" stroke="#374151"/>
<line x1="90" y1="290.0" x2="925" y2="290.0" stroke="#e5e7eb"/>
<text x="82" y="294.0" font-size="11" text-anchor="end" font-weight="normal" fill="#111827">0.0</text>
<line x1="90" y1="240.0" x2="925" y2="240.0" stroke="#e5e7eb"/>
<text x="82" y="244.0" font-size="11" text-anchor="end" font-weight="normal" fill="#111827">0.8</text>
<line x1="90" y1="190.0" x2="925" y2="190.0" stroke="#e5e7eb"/>
<text x="82" y="194.0" font-size="11" text-anchor="end" font-weight="normal" fill="#111827">1.5</text>
<line x1="90" y1="140.0" x2="925" y2="140.0" stroke="#e5e7eb"/>
<text x="82" y="144.0" font-size="11" text-anchor="end" font-weight="normal" fill="#111827">2.3</text>
<line x1="90" y1="90.0" x2="925" y2="90.0" stroke="#e5e7eb"/>
<text x="82" y="94.0" font-size="11" text-anchor="end" font-weight="normal" fill="#111827">3.1</text>
<text x="90.0" y="310" font-size="11" text-anchor="middle" font-weight="normal" fill="#111827">1x256</text>
<text x="194.375" y="310" font-size="11" text-anchor="middle" font-weight="normal" fill="#111827">2x128</text>
<text x="298.75" y="310" font-size="11" text-anchor="middle" font-weight="normal" fill="#111827">4x64</text>
<text x="403.125" y="310" font-size="11" text-anchor="middle" font-weight="normal" fill="#111827">8x32</text>
<text x="507.5" y="310" font-size="11" text-anchor="middle" font-weight="normal" fill="#111827">16x16</text>
<text x="611.875" y="310" font-size="11" text-anchor="middle" font-weight="normal" fill="#111827">32x8</text>
<text x="716.25" y="310" font-size="11" text-anchor="middle" font-weight="normal" fill="#111827">64x4</text>
<text x="820.625" y="310" font-size="11" text-anchor="middle" font-weight="normal" fill="#111827">128x2</text>
<text x="925.0" y="310" font-size="11" text-anchor="middle" font-weight="normal" fill="#111827">256x1</text>
<polyline points="90.0,241.1 194.4,188.3 298.8,118.4 403.1,111.4 507.5,112.8 611.9,117.7 716.2,129.5 820.6,197.9 925.0,221.9" fill="none" stroke="#2563eb" stroke-width="3"/>
<circle cx="90.0" cy="241.1" r="4" fill="#2563eb"/>
<circle cx="194.4" cy="188.3" r="4" fill="#2563eb"/>
<circle cx="298.8" cy="118.4" r="4" fill="#2563eb"/>
<circle cx="403.1" cy="111.4" r="4" fill="#2563eb"/>
<circle cx="507.5" cy="112.8" r="4" fill="#2563eb"/>
<circle cx="611.9" cy="117.7" r="4" fill="#2563eb"/>
<circle cx="716.2" cy="129.5" r="4" fill="#2563eb"/>
<circle cx="820.6" cy="197.9" r="4" fill="#2563eb"/>
<circle cx="925.0" cy="221.9" r="4" fill="#2563eb"/>
<rect x="90" y="53" width="13" height="4" fill="#2563eb"/>
<text x="108" y="60" font-size="12" text-anchor="start" font-weight="normal" fill="#111827">throughput</text>
<text x="90" y="332" font-size="13" text-anchor="start" font-weight="bold" fill="#111827">remote span us</text>
<line x1="90" y1="350" x2="90" y2="550" stroke="#374151"/>
<line x1="90" y1="550" x2="925" y2="550" stroke="#374151"/>
<line x1="90" y1="550.0" x2="925" y2="550.0" stroke="#e5e7eb"/>
<text x="82" y="554.0" font-size="11" text-anchor="end" font-weight="normal" fill="#111827">0.0</text>
<line x1="90" y1="500.0" x2="925" y2="500.0" stroke="#e5e7eb"/>
<text x="82" y="504.0" font-size="11" text-anchor="end" font-weight="normal" fill="#111827">32.3</text>
<line x1="90" y1="450.0" x2="925" y2="450.0" stroke="#e5e7eb"/>
<text x="82" y="454.0" font-size="11" text-anchor="end" font-weight="normal" fill="#111827">64.5</text>
<line x1="90" y1="400.0" x2="925" y2="400.0" stroke="#e5e7eb"/>
<text x="82" y="404.0" font-size="11" text-anchor="end" font-weight="normal" fill="#111827">96.8</text>
<line x1="90" y1="350.0" x2="925" y2="350.0" stroke="#e5e7eb"/>
<text x="82" y="354.0" font-size="11" text-anchor="end" font-weight="normal" fill="#111827">129.0</text>
<line x1="90" y1="503.5" x2="925" y2="503.5" stroke="#f59e0b" stroke-dasharray="6 5"/>
<text x="921" y="498.4970238095238" font-size="11" text-anchor="end" font-weight="normal" fill="#111827">30 us objective</text>
<text x="90.0" y="570" font-size="11" text-anchor="middle" font-weight="normal" fill="#111827">1x256</text>
<text x="194.375" y="570" font-size="11" text-anchor="middle" font-weight="normal" fill="#111827">2x128</text>
<text x="298.75" y="570" font-size="11" text-anchor="middle" font-weight="normal" fill="#111827">4x64</text>
<text x="403.125" y="570" font-size="11" text-anchor="middle" font-weight="normal" fill="#111827">8x32</text>
<text x="507.5" y="570" font-size="11" text-anchor="middle" font-weight="normal" fill="#111827">16x16</text>
<text x="611.875" y="570" font-size="11" text-anchor="middle" font-weight="normal" fill="#111827">32x8</text>
<text x="716.25" y="570" font-size="11" text-anchor="middle" font-weight="normal" fill="#111827">64x4</text>
<text x="820.625" y="570" font-size="11" text-anchor="middle" font-weight="normal" fill="#111827">128x2</text>
<text x="925.0" y="570" font-size="11" text-anchor="middle" font-weight="normal" fill="#111827">256x1</text>
<polyline points="90.0,447.8 194.4,451.3 298.8,454.4 403.1,497.7 507.5,517.8 611.9,528.1 716.2,533.7 820.6,536.5 925.0,541.1" fill="none" stroke="#dc2626" stroke-width="3"/>
<circle cx="90.0" cy="447.8" r="4" fill="#dc2626"/>
<circle cx="194.4" cy="451.3" r="4" fill="#dc2626"/>
<circle cx="298.8" cy="454.4" r="4" fill="#dc2626"/>
<circle cx="403.1" cy="497.7" r="4" fill="#dc2626"/>
<circle cx="507.5" cy="517.8" r="4" fill="#dc2626"/>
<circle cx="611.9" cy="528.1" r="4" fill="#dc2626"/>
<circle cx="716.2" cy="533.7" r="4" fill="#dc2626"/>
<circle cx="820.6" cy="536.5" r="4" fill="#dc2626"/>
<circle cx="925.0" cy="541.1" r="4" fill="#dc2626"/>
<rect x="90" y="313" width="13" height="4" fill="#dc2626"/>
<text x="108" y="320" font-size="12" text-anchor="start" font-weight="normal" fill="#111827">avg</text>
<polyline points="90.0,450.6 194.4,455.4 298.8,453.6 403.1,501.9 507.5,520.7 611.9,530.0 716.2,535.4 820.6,539.1 925.0,541.6" fill="none" stroke="#0d9488" stroke-width="3"/>
<circle cx="90.0" cy="450.6" r="4" fill="#0d9488"/>
<circle cx="194.4" cy="455.4" r="4" fill="#0d9488"/>
<circle cx="298.8" cy="453.6" r="4" fill="#0d9488"/>
<circle cx="403.1" cy="501.9" r="4" fill="#0d9488"/>
<circle cx="507.5" cy="520.7" r="4" fill="#0d9488"/>
<circle cx="611.9" cy="530.0" r="4" fill="#0d9488"/>
<circle cx="716.2" cy="535.4" r="4" fill="#0d9488"/>
<circle cx="820.6" cy="539.1" r="4" fill="#0d9488"/>
<circle cx="925.0" cy="541.6" r="4" fill="#0d9488"/>
<rect x="240" y="313" width="13" height="4" fill="#0d9488"/>
<text x="258" y="320" font-size="12" text-anchor="start" font-weight="normal" fill="#111827">p50</text>
<polyline points="90.0,373.6 194.4,371.4 298.8,371.4 403.1,375.5 507.5,464.7 611.9,496.2 716.2,497.6 820.6,497.0 925.0,531.1" fill="none" stroke="#9333ea" stroke-width="3"/>
<circle cx="90.0" cy="373.6" r="4" fill="#9333ea"/>
<circle cx="194.4" cy="371.4" r="4" fill="#9333ea"/>
<circle cx="298.8" cy="371.4" r="4" fill="#9333ea"/>
<circle cx="403.1" cy="375.5" r="4" fill="#9333ea"/>
<circle cx="507.5" cy="464.7" r="4" fill="#9333ea"/>
<circle cx="611.9" cy="496.2" r="4" fill="#9333ea"/>
<circle cx="716.2" cy="497.6" r="4" fill="#9333ea"/>
<circle cx="820.6" cy="497.0" r="4" fill="#9333ea"/>
<circle cx="925.0" cy="531.1" r="4" fill="#9333ea"/>
<rect x="390" y="313" width="13" height="4" fill="#9333ea"/>
<text x="408" y="320" font-size="12" text-anchor="start" font-weight="normal" fill="#111827">p99</text>
</svg>