<svg xmlns="http://www.w3.org/2000/svg" width="760" height="420" viewBox="0 0 760 420" font-family="Helvetica,Arial,sans-serif">
<rect width="760" height="420" fill="white"/>
<text x="380.0" y="24.0" font-size="15" fill="#0f172a" text-anchor="middle" font-weight="600">F1 — local(stock) vs remote(port), YCSB A (1:1, 쓰기 50%)</text>
<line x1="78.0" y1="366.0" x2="702.0" y2="366.0" stroke="#0f172a" stroke-width="1"/>
<line x1="78.0" y1="46.0" x2="78.0" y2="366.0" stroke="#0f172a" stroke-width="1"/>
<text x="390.0" y="406.0" font-size="12" fill="#0f172a" text-anchor="middle" font-weight="400">처리량 (M ops/s)</text>
<text x="18" y="206.0" font-size="12" fill="#0f172a" text-anchor="middle" transform="rotate(-90 18 206.0)">클라이언트 지연 avg (ms, 로그)</text>
<line x1="78.0" y1="327.5" x2="702.0" y2="327.5" stroke="#e5e7eb" stroke-width="1"/>
<text x="70.0" y="331.5" font-size="10" fill="#64748b" text-anchor="end" font-weight="400">0.3</text>
<line x1="78.0" y1="263.3" x2="702.0" y2="263.3" stroke="#e5e7eb" stroke-width="1"/>
<text x="70.0" y="267.3" font-size="10" fill="#64748b" text-anchor="end" font-weight="400">1</text>
<line x1="78.0" y1="204.8" x2="702.0" y2="204.8" stroke="#e5e7eb" stroke-width="1"/>
<text x="70.0" y="208.8" font-size="10" fill="#64748b" text-anchor="end" font-weight="400">3</text>
<line x1="78.0" y1="140.6" x2="702.0" y2="140.6" stroke="#e5e7eb" stroke-width="1"/>
<text x="70.0" y="144.6" font-size="10" fill="#64748b" text-anchor="end" font-weight="400">10</text>
<line x1="78.0" y1="82.1" x2="702.0" y2="82.1" stroke="#e5e7eb" stroke-width="1"/>
<text x="70.0" y="86.1" font-size="10" fill="#64748b" text-anchor="end" font-weight="400">30</text>
<line x1="78.0" y1="46.0" x2="78.0" y2="366.0" stroke="#e5e7eb" stroke-width="1"/>
<text x="78.0" y="382.0" font-size="10" fill="#64748b" text-anchor="middle" font-weight="400">0</text>
<line x1="230.6" y1="46.0" x2="230.6" y2="366.0" stroke="#e5e7eb" stroke-width="1"/>
<text x="230.6" y="382.0" font-size="10" fill="#64748b" text-anchor="middle" font-weight="400">2</text>
<line x1="383.2" y1="46.0" x2="383.2" y2="366.0" stroke="#e5e7eb" stroke-width="1"/>
<text x="383.2" y="382.0" font-size="10" fill="#64748b" text-anchor="middle" font-weight="400">4</text>
<line x1="535.7" y1="46.0" x2="535.7" y2="366.0" stroke="#e5e7eb" stroke-width="1"/>
<text x="535.7" y="382.0" font-size="10" fill="#64748b" text-anchor="middle" font-weight="400">6</text>
<line x1="688.3" y1="46.0" x2="688.3" y2="366.0" stroke="#e5e7eb" stroke-width="1"/>
<text x="688.3" y="382.0" font-size="10" fill="#64748b" text-anchor="middle" font-weight="400">8</text>
<path d="M 113.6,336.1 L 154.3,266.1 L 165.6,199.5 L 167.6,163.8 L 166.6,126.0 L 169.4,89.2 L 167.1,67.6" fill="none" stroke="#dc2626" stroke-width="2.2"/>
<circle cx="113.6" cy="336.1" r="3.6" fill="#dc2626" stroke="#dc2626" stroke-width="1.6"/>
<text x="119.6" y="331.1" font-size="8" fill="#64748b" text-anchor="start" font-weight="400">1</text>
<circle cx="154.3" cy="266.1" r="3.6" fill="#dc2626" stroke="#dc2626" stroke-width="1.6"/>
<circle cx="165.6" cy="199.5" r="3.6" fill="#dc2626" stroke="#dc2626" stroke-width="1.6"/>
<text x="171.6" y="194.5" font-size="8" fill="#64748b" text-anchor="start" font-weight="400">32</text>
<circle cx="167.6" cy="163.8" r="3.6" fill="#dc2626" stroke="#dc2626" stroke-width="1.6"/>
<circle cx="166.6" cy="126.0" r="3.6" fill="#dc2626" stroke="#dc2626" stroke-width="1.6"/>
<circle cx="169.4" cy="89.2" r="3.6" fill="#dc2626" stroke="#dc2626" stroke-width="1.6"/>
<text x="175.4" y="84.2" font-size="8" fill="#64748b" text-anchor="start" font-weight="400">256</text>
<circle cx="167.1" cy="67.6" r="3.6" fill="#dc2626" stroke="#dc2626" stroke-width="1.6"/>
<text x="173.1" y="62.6" font-size="8" fill="#64748b" text-anchor="start" font-weight="400">384</text>
<circle cx="161.9" cy="86.0" r="4.6" fill="white" stroke="#dc2626" stroke-width="1.6"/>
<path d="M 121.6,347.0 L 310.1,326.0 L 505.0,285.1 L 613.1,260.5 L 635.1,224.8 L 630.9,187.0 L 634.4,165.6" fill="none" stroke="#2563eb" stroke-width="2.2"/>
<circle cx="121.6" cy="347.0" r="3.6" fill="#2563eb" stroke="#2563eb" stroke-width="1.6"/>
<text x="127.6" y="342.0" font-size="8" fill="#64748b" text-anchor="start" font-weight="400">1</text>
<circle cx="310.1" cy="326.0" r="3.6" fill="#2563eb" stroke="#2563eb" stroke-width="1.6"/>
<circle cx="505.0" cy="285.1" r="3.6" fill="#2563eb" stroke="#2563eb" stroke-width="1.6"/>
<text x="511.0" y="280.1" font-size="8" fill="#64748b" text-anchor="start" font-weight="400">32</text>
<circle cx="613.1" cy="260.5" r="3.6" fill="#2563eb" stroke="#2563eb" stroke-width="1.6"/>
<circle cx="635.1" cy="224.8" r="3.6" fill="#2563eb" stroke="#2563eb" stroke-width="1.6"/>
<circle cx="630.9" cy="187.0" r="3.6" fill="#2563eb" stroke="#2563eb" stroke-width="1.6"/>
<text x="636.9" y="182.0" font-size="8" fill="#64748b" text-anchor="start" font-weight="400">256</text>
<circle cx="634.4" cy="165.6" r="3.6" fill="#2563eb" stroke="#2563eb" stroke-width="1.6"/>
<text x="640.4" y="160.6" font-size="8" fill="#64748b" text-anchor="start" font-weight="400">384</text>
<circle cx="210.3" cy="110.4" r="4.6" fill="white" stroke="#2563eb" stroke-width="1.6"/>
<text x="88.0" y="34.0" font-size="11" fill="#0f172a" text-anchor="start" font-weight="600">빨강 stock · 파랑 port · 속 빈 마커 = zipf θ=0.99    정점 1.20 → 7.30 M (+510%)</text>
<text x="88.0" y="52.0" font-size="10" fill="#64748b" text-anchor="start" font-weight="400">주의: 메모리 배치와 item_lock 경합이 겹친 워크로드다</text>
</svg>