<svg xmlns="http://www.w3.org/2000/svg" width="760" height="420" viewBox="0 0 760 420" font-family="Helvetica,Arial,sans-serif">
<rect width="760" height="420" fill="white"/>
<text x="380.0" y="24.0" font-size="15" fill="#0f172a" text-anchor="middle" font-weight="600">F1 — local(stock) vs remote(port), YCSB C (0:1, 읽기 100%)</text>
<line x1="78.0" y1="366.0" x2="702.0" y2="366.0" stroke="#0f172a" stroke-width="1"/>
<line x1="78.0" y1="46.0" x2="78.0" y2="366.0" stroke="#0f172a" stroke-width="1"/>
<text x="390.0" y="406.0" font-size="12" fill="#0f172a" text-anchor="middle" font-weight="400">처리량 (M ops/s)</text>
<text x="18" y="206.0" font-size="12" fill="#0f172a" text-anchor="middle" transform="rotate(-90 18 206.0)">클라이언트 지연 avg (ms)</text>
<line x1="78.0" y1="366.0" x2="702.0" y2="366.0" stroke="#e5e7eb" stroke-width="1"/>
<text x="70.0" y="370.0" font-size="10" fill="#64748b" text-anchor="end" font-weight="400">0</text>
<line x1="78.0" y1="280.1" x2="702.0" y2="280.1" stroke="#e5e7eb" stroke-width="1"/>
<text x="70.0" y="284.1" font-size="10" fill="#64748b" text-anchor="end" font-weight="400">1</text>
<line x1="78.0" y1="194.2" x2="702.0" y2="194.2" stroke="#e5e7eb" stroke-width="1"/>
<text x="70.0" y="198.2" font-size="10" fill="#64748b" text-anchor="end" font-weight="400">2</text>
<line x1="78.0" y1="108.2" x2="702.0" y2="108.2" stroke="#e5e7eb" stroke-width="1"/>
<text x="70.0" y="112.2" font-size="10" fill="#64748b" text-anchor="end" font-weight="400">3</text>
<line x1="78.0" y1="46.0" x2="78.0" y2="366.0" stroke="#e5e7eb" stroke-width="1"/>
<text x="78.0" y="382.0" font-size="10" fill="#64748b" text-anchor="middle" font-weight="400">0</text>
<line x1="218.0" y1="46.0" x2="218.0" y2="366.0" stroke="#e5e7eb" stroke-width="1"/>
<text x="218.0" y="382.0" font-size="10" fill="#64748b" text-anchor="middle" font-weight="400">4</text>
<line x1="358.0" y1="46.0" x2="358.0" y2="366.0" stroke="#e5e7eb" stroke-width="1"/>
<text x="358.0" y="382.0" font-size="10" fill="#64748b" text-anchor="middle" font-weight="400">8</text>
<line x1="498.0" y1="46.0" x2="498.0" y2="366.0" stroke="#e5e7eb" stroke-width="1"/>
<text x="498.0" y="382.0" font-size="10" fill="#64748b" text-anchor="middle" font-weight="400">12</text>
<line x1="638.0" y1="46.0" x2="638.0" y2="366.0" stroke="#e5e7eb" stroke-width="1"/>
<text x="638.0" y="382.0" font-size="10" fill="#64748b" text-anchor="middle" font-weight="400">16</text>
<path d="M 99.4,349.3 L 218.7,346.4 L 423.6,335.5 L 480.4,312.5 L 568.0,276.3 L 616.0,198.8 L 635.1,121.7" fill="none" stroke="#dc2626" stroke-width="2.2"/>
<circle cx="99.4" cy="349.3" r="3.6" fill="#dc2626" stroke="#dc2626" stroke-width="1.6"/>
<text x="105.4" y="344.3" font-size="8" fill="#64748b" text-anchor="start" font-weight="400">1</text>
<circle cx="218.7" cy="346.4" r="3.6" fill="#dc2626" stroke="#dc2626" stroke-width="1.6"/>
<circle cx="423.6" cy="335.5" r="3.6" fill="#dc2626" stroke="#dc2626" stroke-width="1.6"/>
<text x="429.6" y="330.5" font-size="8" fill="#64748b" text-anchor="start" font-weight="400">32</text>
<circle cx="480.4" cy="312.5" r="3.6" fill="#dc2626" stroke="#dc2626" stroke-width="1.6"/>
<circle cx="568.0" cy="276.3" r="3.6" fill="#dc2626" stroke="#dc2626" stroke-width="1.6"/>
<circle cx="616.0" cy="198.8" r="3.6" fill="#dc2626" stroke="#dc2626" stroke-width="1.6"/>
<text x="622.0" y="193.8" font-size="8" fill="#64748b" text-anchor="start" font-weight="400">256</text>
<circle cx="635.1" cy="121.7" r="3.6" fill="#dc2626" stroke="#dc2626" stroke-width="1.6"/>
<text x="641.1" y="116.7" font-size="8" fill="#64748b" text-anchor="start" font-weight="400">384</text>
<circle cx="537.4" cy="169.2" r="4.6" fill="white" stroke="#dc2626" stroke-width="1.6"/>
<path d="M 98.0,348.1 L 200.0,343.2 L 360.9,327.7 L 433.4,304.7 L 530.6,268.0 L 562.0,179.5 L 568.5,87.7" fill="none" stroke="#2563eb" stroke-width="2.2"/>
<circle cx="98.0" cy="348.1" r="3.6" fill="#2563eb" stroke="#2563eb" stroke-width="1.6"/>
<text x="104.0" y="343.1" font-size="8" fill="#64748b" text-anchor="start" font-weight="400">1</text>
<circle cx="200.0" cy="343.2" r="3.6" fill="#2563eb" stroke="#2563eb" stroke-width="1.6"/>
<circle cx="360.9" cy="327.7" r="3.6" fill="#2563eb" stroke="#2563eb" stroke-width="1.6"/>
<text x="366.9" y="322.7" font-size="8" fill="#64748b" text-anchor="start" font-weight="400">32</text>
<circle cx="433.4" cy="304.7" r="3.6" fill="#2563eb" stroke="#2563eb" stroke-width="1.6"/>
<circle cx="530.6" cy="268.0" r="3.6" fill="#2563eb" stroke="#2563eb" stroke-width="1.6"/>
<circle cx="562.0" cy="179.5" r="3.6" fill="#2563eb" stroke="#2563eb" stroke-width="1.6"/>
<text x="568.0" y="174.5" font-size="8" fill="#64748b" text-anchor="start" font-weight="400">256</text>
<circle cx="568.5" cy="87.7" r="3.6" fill="#2563eb" stroke="#2563eb" stroke-width="1.6"/>
<text x="574.5" y="82.7" font-size="8" fill="#64748b" text-anchor="start" font-weight="400">384</text>
<circle cx="525.1" cy="163.6" r="4.6" fill="white" stroke="#2563eb" stroke-width="1.6"/>
<text x="88.0" y="34.0" font-size="11" fill="#0f172a" text-anchor="start" font-weight="600">빨강 stock · 파랑 port · 속 빈 마커 = zipf θ=0.99    정점 15.92 → 14.01 M (-12%)</text>
</svg>