<svg xmlns="http://www.w3.org/2000/svg" width="760" height="420" viewBox="0 0 760 420" font-family="Helvetica,Arial,sans-serif">
<rect width="760" height="420" fill="white"/>
<text x="380.0" y="24.0" font-size="15" fill="#0f172a" text-anchor="middle" font-weight="600">F2a — 같은 부하 축에서 두 지표가 반대로 간다 (port_v4)</text>
<line x1="78.0" y1="366.0" x2="702.0" y2="366.0" stroke="#0f172a" stroke-width="1"/>
<line x1="78.0" y1="46.0" x2="78.0" y2="366.0" stroke="#0f172a" stroke-width="1"/>
<text x="390.0" y="406.0" font-size="12" fill="#0f172a" text-anchor="middle" font-weight="400">처리량 (M ops/s)</text>
<text x="18" y="206.0" font-size="12" fill="#0f172a" text-anchor="middle" transform="rotate(-90 18 206.0)">클라이언트 지연 avg (ms, 로그)</text>
<text x="746" y="206.0" font-size="12" fill="#64748b" text-anchor="middle" transform="rotate(90 746 206.0)">span v3 (µs)</text>
<line x1="78.0" y1="366.0" x2="702.0" y2="366.0" stroke="#e5e7eb" stroke-width="1"/>
<text x="70.0" y="370.0" font-size="10" fill="#64748b" text-anchor="end" font-weight="400">0.1</text>
<line x1="78.0" y1="243.0" x2="702.0" y2="243.0" stroke="#e5e7eb" stroke-width="1"/>
<text x="70.0" y="247.0" font-size="10" fill="#64748b" text-anchor="end" font-weight="400">1</text>
<line x1="78.0" y1="120.0" x2="702.0" y2="120.0" stroke="#e5e7eb" stroke-width="1"/>
<text x="70.0" y="124.0" font-size="10" fill="#64748b" text-anchor="end" font-weight="400">10</text>
<line x1="78.0" y1="46.0" x2="78.0" y2="366.0" stroke="#e5e7eb" stroke-width="1"/>
<text x="78.0" y="382.0" font-size="10" fill="#64748b" text-anchor="middle" font-weight="400">0</text>
<line x1="250.1" y1="46.0" x2="250.1" y2="366.0" stroke="#e5e7eb" stroke-width="1"/>
<text x="250.1" y="382.0" font-size="10" fill="#64748b" text-anchor="middle" font-weight="400">4</text>
<line x1="422.3" y1="46.0" x2="422.3" y2="366.0" stroke="#e5e7eb" stroke-width="1"/>
<text x="422.3" y="382.0" font-size="10" fill="#64748b" text-anchor="middle" font-weight="400">8</text>
<line x1="594.4" y1="46.0" x2="594.4" y2="366.0" stroke="#e5e7eb" stroke-width="1"/>
<text x="594.4" y="382.0" font-size="10" fill="#64748b" text-anchor="middle" font-weight="400">12</text>
<line x1="78.0" y1="126.0" x2="702.0" y2="126.0" stroke="#16a34a" stroke-width="1.4" stroke-dasharray="6 4"/>
<text x="698.0" y="120.0" font-size="10" fill="#16a34a" text-anchor="end" font-weight="400">계약 span 30 µs</text>
<path d="M 102.8,327.5 L 224.4,312.5 L 403.0,282.1 L 512.5,259.9 L 610.1,233.4 L 645.0,198.9 L 641.0,176.8" fill="none" stroke="#2563eb" stroke-width="2.2"/>
<circle cx="102.8" cy="327.5" r="3.6" fill="#2563eb" stroke="#2563eb" stroke-width="1.6"/>
<circle cx="224.4" cy="312.5" r="3.6" fill="#2563eb" stroke="#2563eb" stroke-width="1.6"/>
<circle cx="403.0" cy="282.1" r="3.6" fill="#2563eb" stroke="#2563eb" stroke-width="1.6"/>
<circle cx="512.5" cy="259.9" r="3.6" fill="#2563eb" stroke="#2563eb" stroke-width="1.6"/>
<circle cx="610.1" cy="233.4" r="3.6" fill="#2563eb" stroke="#2563eb" stroke-width="1.6"/>
<circle cx="645.0" cy="198.9" r="3.6" fill="#2563eb" stroke="#2563eb" stroke-width="1.6"/>
<circle cx="641.0" cy="176.8" r="3.6" fill="#2563eb" stroke="#2563eb" stroke-width="1.6"/>
<path d="M 102.8,224.8 L 224.4,146.2 L 403.0,173.6 L 512.5,175.7 L 610.1,188.1 L 645.0,192.2 L 641.0,190.8" fill="none" stroke="#2563eb" stroke-width="1.4" stroke-dasharray="4 3"/>
<circle cx="102.8" cy="224.8" r="3.0" fill="white" stroke="#2563eb" stroke-width="1.6"/>
<circle cx="224.4" cy="146.2" r="3.0" fill="white" stroke="#2563eb" stroke-width="1.6"/>
<circle cx="403.0" cy="173.6" r="3.0" fill="white" stroke="#2563eb" stroke-width="1.6"/>
<circle cx="512.5" cy="175.7" r="3.0" fill="white" stroke="#2563eb" stroke-width="1.6"/>
<circle cx="610.1" cy="188.1" r="3.0" fill="white" stroke="#2563eb" stroke-width="1.6"/>
<circle cx="645.0" cy="192.2" r="3.0" fill="white" stroke="#2563eb" stroke-width="1.6"/>
<circle cx="641.0" cy="190.8" r="3.0" fill="white" stroke="#2563eb" stroke-width="1.6"/>
<path d="M 102.3,326.3 L 220.2,310.9 L 377.9,277.8 L 447.7,251.4 L 520.9,223.5 L 544.8,188.2 L 515.8,162.8" fill="none" stroke="#ea580c" stroke-width="2.2"/>
<circle cx="102.3" cy="326.3" r="3.6" fill="#ea580c" stroke="#ea580c" stroke-width="1.6"/>
<circle cx="220.2" cy="310.9" r="3.6" fill="#ea580c" stroke="#ea580c" stroke-width="1.6"/>
<circle cx="377.9" cy="277.8" r="3.6" fill="#ea580c" stroke="#ea580c" stroke-width="1.6"/>
<circle cx="447.7" cy="251.4" r="3.6" fill="#ea580c" stroke="#ea580c" stroke-width="1.6"/>
<circle cx="520.9" cy="223.5" r="3.6" fill="#ea580c" stroke="#ea580c" stroke-width="1.6"/>
<circle cx="544.8" cy="188.2" r="3.6" fill="#ea580c" stroke="#ea580c" stroke-width="1.6"/>
<circle cx="515.8" cy="162.8" r="3.6" fill="#ea580c" stroke="#ea580c" stroke-width="1.6"/>
<path d="M 102.3,207.9 L 220.2,140.2 L 377.9,170.3 L 447.7,161.9 L 520.9,178.6 L 544.8,183.9 L 515.8,169.9" fill="none" stroke="#ea580c" stroke-width="1.4" stroke-dasharray="4 3"/>
<circle cx="102.3" cy="207.9" r="3.0" fill="white" stroke="#ea580c" stroke-width="1.6"/>
<circle cx="220.2" cy="140.2" r="3.0" fill="white" stroke="#ea580c" stroke-width="1.6"/>
<circle cx="377.9" cy="170.3" r="3.0" fill="white" stroke="#ea580c" stroke-width="1.6"/>
<circle cx="447.7" cy="161.9" r="3.0" fill="white" stroke="#ea580c" stroke-width="1.6"/>
<circle cx="520.9" cy="178.6" r="3.0" fill="white" stroke="#ea580c" stroke-width="1.6"/>
<circle cx="544.8" cy="183.9" r="3.0" fill="white" stroke="#ea580c" stroke-width="1.6"/>
<circle cx="515.8" cy="169.9" r="3.0" fill="white" stroke="#ea580c" stroke-width="1.6"/>
<text x="88.0" y="34.0" font-size="10" fill="#64748b" text-anchor="start" font-weight="400">실선(왼쪽) 클라이언트 지연 ↑    파선(오른쪽) span v3 — 평평하다</text>
<text x="88.0" y="50.0" font-size="10" fill="#64748b" text-anchor="start" font-weight="400">파랑 GET-only · 주황 1:9 혼합</text>
</svg>