<svg xmlns="http://www.w3.org/2000/svg" width="760" height="420" viewBox="0 0 760 420" font-family="Helvetica,Arial,sans-serif">
<rect width="760" height="420" fill="white"/>
<text x="380.0" y="24.0" font-size="15" fill="#0f172a" text-anchor="middle" font-weight="600">F2b — 서버 체류 분해, 1:9 혼합 (v4, 60초 셀)</text>
<line x1="78.0" y1="366.0" x2="702.0" y2="366.0" stroke="#0f172a" stroke-width="1"/>
<line x1="78.0" y1="46.0" x2="78.0" y2="366.0" stroke="#0f172a" stroke-width="1"/>
<text x="390.0" y="406.0" font-size="12" fill="#0f172a" text-anchor="middle" font-weight="400">pipeline</text>
<text x="18" y="206.0" font-size="12" fill="#0f172a" text-anchor="middle" transform="rotate(-90 18 206.0)">서버 체류 (µs)</text>
<line x1="78.0" y1="366.0" x2="702.0" y2="366.0" stroke="#e5e7eb" stroke-width="1"/>
<text x="70.0" y="370.0" font-size="10" fill="#64748b" text-anchor="end" font-weight="400">0</text>
<line x1="78.0" y1="329.9" x2="702.0" y2="329.9" stroke="#e5e7eb" stroke-width="1"/>
<text x="70.0" y="333.9" font-size="10" fill="#64748b" text-anchor="end" font-weight="400">200</text>
<line x1="78.0" y1="293.8" x2="702.0" y2="293.8" stroke="#e5e7eb" stroke-width="1"/>
<text x="70.0" y="297.8" font-size="10" fill="#64748b" text-anchor="end" font-weight="400">400</text>
<line x1="78.0" y1="257.6" x2="702.0" y2="257.6" stroke="#e5e7eb" stroke-width="1"/>
<text x="70.0" y="261.6" font-size="10" fill="#64748b" text-anchor="end" font-weight="400">600</text>
<line x1="78.0" y1="221.5" x2="702.0" y2="221.5" stroke="#e5e7eb" stroke-width="1"/>
<text x="70.0" y="225.5" font-size="10" fill="#64748b" text-anchor="end" font-weight="400">800</text>
<line x1="78.0" y1="185.4" x2="702.0" y2="185.4" stroke="#e5e7eb" stroke-width="1"/>
<text x="70.0" y="189.4" font-size="10" fill="#64748b" text-anchor="end" font-weight="400">1000</text>
<line x1="78.0" y1="149.3" x2="702.0" y2="149.3" stroke="#e5e7eb" stroke-width="1"/>
<text x="70.0" y="153.3" font-size="10" fill="#64748b" text-anchor="end" font-weight="400">1200</text>
<line x1="78.0" y1="113.1" x2="702.0" y2="113.1" stroke="#e5e7eb" stroke-width="1"/>
<text x="70.0" y="117.1" font-size="10" fill="#64748b" text-anchor="end" font-weight="400">1400</text>
<line x1="78.0" y1="77.0" x2="702.0" y2="77.0" stroke="#e5e7eb" stroke-width="1"/>
<text x="70.0" y="81.0" font-size="10" fill="#64748b" text-anchor="end" font-weight="400">1600</text>
<rect x="99.4" y="365.9" width="46.4" height="0.1" fill="#cbd5e1"/>
<rect x="99.4" y="365.5" width="46.4" height="0.5" fill="#94a3b8"/>
<rect x="99.4" y="361.9" width="46.4" height="3.6" fill="#1d4ed8"/>
<rect x="99.4" y="358.2" width="46.4" height="3.7" fill="#fca5a5"/>
<text x="122.6" y="352.2" font-size="9" fill="#0f172a" text-anchor="middle" font-weight="600">43</text>
<text x="122.6" y="382.0" font-size="10" fill="#0f172a" text-anchor="middle" font-weight="400">1</text>
<rect x="188.5" y="364.1" width="46.4" height="1.9" fill="#cbd5e1"/>
<rect x="188.5" y="363.8" width="46.4" height="0.2" fill="#94a3b8"/>
<rect x="188.5" y="358.7" width="46.4" height="5.1" fill="#1d4ed8"/>
<rect x="188.5" y="353.0" width="46.4" height="5.8" fill="#fca5a5"/>
<text x="211.7" y="347.0" font-size="9" fill="#0f172a" text-anchor="middle" font-weight="600">72</text>
<text x="211.7" y="382.0" font-size="10" fill="#0f172a" text-anchor="middle" font-weight="400">8</text>
<rect x="277.7" y="359.4" width="46.4" height="6.6" fill="#cbd5e1"/>
<rect x="277.7" y="359.3" width="46.4" height="0.2" fill="#94a3b8"/>
<rect x="277.7" y="354.8" width="46.4" height="4.4" fill="#1d4ed8"/>
<rect x="277.7" y="337.1" width="46.4" height="17.8" fill="#fca5a5"/>
<text x="300.9" y="331.1" font-size="9" fill="#0f172a" text-anchor="middle" font-weight="600">160</text>
<text x="300.9" y="382.0" font-size="10" fill="#0f172a" text-anchor="middle" font-weight="400">32</text>
<rect x="366.8" y="357.6" width="46.4" height="8.4" fill="#cbd5e1"/>
<rect x="366.8" y="357.5" width="46.4" height="0.1" fill="#94a3b8"/>
<rect x="366.8" y="352.8" width="46.4" height="4.6" fill="#1d4ed8"/>
<rect x="366.8" y="331.7" width="46.4" height="21.1" fill="#fca5a5"/>
<text x="390.0" y="325.7" font-size="9" fill="#0f172a" text-anchor="middle" font-weight="600">190</text>
<text x="390.0" y="382.0" font-size="10" fill="#0f172a" text-anchor="middle" font-weight="400">64</text>
<rect x="456.0" y="353.0" width="46.4" height="13.0" fill="#cbd5e1"/>
<rect x="456.0" y="352.9" width="46.4" height="0.1" fill="#94a3b8"/>
<rect x="456.0" y="348.7" width="46.4" height="4.2" fill="#1d4ed8"/>
<rect x="456.0" y="311.6" width="46.4" height="37.0" fill="#fca5a5"/>
<text x="479.1" y="305.6" font-size="9" fill="#0f172a" text-anchor="middle" font-weight="600">301</text>
<text x="479.1" y="382.0" font-size="10" fill="#0f172a" text-anchor="middle" font-weight="400">128</text>
<rect x="545.1" y="339.8" width="46.4" height="26.2" fill="#cbd5e1"/>
<rect x="545.1" y="339.7" width="46.4" height="0.1" fill="#94a3b8"/>
<rect x="545.1" y="335.6" width="46.4" height="4.1" fill="#1d4ed8"/>
<rect x="545.1" y="251.8" width="46.4" height="83.8" fill="#fca5a5"/>
<text x="568.3" y="245.8" font-size="9" fill="#0f172a" text-anchor="middle" font-weight="600">632</text>
<text x="568.3" y="382.0" font-size="10" fill="#0f172a" text-anchor="middle" font-weight="400">256</text>
<rect x="634.3" y="307.5" width="46.4" height="58.5" fill="#cbd5e1"/>
<rect x="634.3" y="307.4" width="46.4" height="0.1" fill="#94a3b8"/>
<rect x="634.3" y="302.9" width="46.4" height="4.4" fill="#1d4ed8"/>
<rect x="634.3" y="80.3" width="46.4" height="222.6" fill="#fca5a5"/>
<text x="657.4" y="74.3" font-size="9" fill="#0f172a" text-anchor="middle" font-weight="600">1582</text>
<text x="657.4" y="382.0" font-size="10" fill="#0f172a" text-anchor="middle" font-weight="400">384</text>
<rect x="88.0" y="24.0" width="11.0" height="11.0" fill="#cbd5e1"/>
<text x="104.0" y="34.0" font-size="10" fill="#0f172a" text-anchor="start" font-weight="400">que</text>
<rect x="196.0" y="24.0" width="11.0" height="11.0" fill="#94a3b8"/>
<text x="212.0" y="34.0" font-size="10" fill="#0f172a" text-anchor="start" font-weight="400">pre</text>
<rect x="304.0" y="24.0" width="11.0" height="11.0" fill="#1d4ed8"/>
<text x="320.0" y="34.0" font-size="10" fill="#0f172a" text-anchor="start" font-weight="400">span v3 (계약)</text>
<rect x="412.0" y="24.0" width="11.0" height="11.0" fill="#fca5a5"/>
<text x="428.0" y="34.0" font-size="10" fill="#0f172a" text-anchor="start" font-weight="400">post</text>
</svg>