<svg xmlns="http://www.w3.org/2000/svg" width="820" height="500" viewBox="0 0 820 500" font-family="Helvetica,Arial,sans-serif">
<rect width="820" height="500" fill="white"/>
<text x="410.0" y="24.0" font-size="15" fill="#0f172a" text-anchor="middle" font-weight="600">F4d  chain·reap 별 처리량–지연</text>
<line x1="80.0" y1="442.0" x2="760.0" y2="442.0" stroke="#0f172a" stroke-width="1"/>
<line x1="80.0" y1="132.0" x2="80.0" y2="442.0" stroke="#0f172a" stroke-width="1"/>
<text x="420.0" y="486.0" font-size="12" fill="#0f172a" text-anchor="middle" font-weight="400">처리량 (M ops/s)</text>
<text x="18" y="287.0" font-size="12" fill="#0f172a" text-anchor="middle" transform="rotate(-90 18 287.0)">클라이언트 지연 avg (ms)</text>
<line x1="80.0" y1="132.0" x2="80.0" y2="442.0" stroke="#e5e7eb" stroke-width="1"/>
<text x="80.0" y="458.0" font-size="10" fill="#64748b" text-anchor="middle" font-weight="400">0</text>
<line x1="267.6" y1="132.0" x2="267.6" y2="442.0" stroke="#e5e7eb" stroke-width="1"/>
<text x="267.6" y="458.0" font-size="10" fill="#64748b" text-anchor="middle" font-weight="400">4</text>
<line x1="455.2" y1="132.0" x2="455.2" y2="442.0" stroke="#e5e7eb" stroke-width="1"/>
<text x="455.2" y="458.0" font-size="10" fill="#64748b" text-anchor="middle" font-weight="400">8</text>
<line x1="642.8" y1="132.0" x2="642.8" y2="442.0" stroke="#e5e7eb" stroke-width="1"/>
<text x="642.8" y="458.0" font-size="10" fill="#64748b" text-anchor="middle" font-weight="400">12</text>
<line x1="80.0" y1="442.0" x2="760.0" y2="442.0" stroke="#e5e7eb" stroke-width="1"/>
<text x="72.0" y="446.0" font-size="10" fill="#64748b" text-anchor="end" font-weight="400">0</text>
<line x1="80.0" y1="364.5" x2="760.0" y2="364.5" stroke="#e5e7eb" stroke-width="1"/>
<text x="72.0" y="368.5" font-size="10" fill="#64748b" text-anchor="end" font-weight="400">1</text>
<line x1="80.0" y1="287.0" x2="760.0" y2="287.0" stroke="#e5e7eb" stroke-width="1"/>
<text x="72.0" y="291.0" font-size="10" fill="#64748b" text-anchor="end" font-weight="400">2</text>
<line x1="80.0" y1="209.5" x2="760.0" y2="209.5" stroke="#e5e7eb" stroke-width="1"/>
<text x="72.0" y="213.5" font-size="10" fill="#64748b" text-anchor="end" font-weight="400">3</text>
<line x1="80.0" y1="132.0" x2="760.0" y2="132.0" stroke="#e5e7eb" stroke-width="1"/>
<text x="72.0" y="136.0" font-size="10" fill="#64748b" text-anchor="end" font-weight="400">4</text>
<path d="M 611.9,235.5 L 648.1,249.0 L 676.4,258.4 L 675.4,258.1 L 696.6,264.7 L 692.4,263.4" fill="none" stroke="#2563eb" stroke-width="2.0"/>
<circle cx="611.9" cy="235.5" r="3.8" fill="#2563eb" stroke="#2563eb" stroke-width="1.6"/>
<text x="611.9" y="226.5" font-size="8.5" fill="#64748b" text-anchor="middle" font-weight="400">c1</text>
<circle cx="648.1" cy="249.0" r="3.8" fill="#2563eb" stroke="#2563eb" stroke-width="1.6"/>
<text x="648.1" y="240.0" font-size="8.5" fill="#64748b" text-anchor="middle" font-weight="400">c2</text>
<circle cx="676.4" cy="258.4" r="3.8" fill="#2563eb" stroke="#2563eb" stroke-width="1.6"/>
<text x="676.4" y="249.4" font-size="8.5" fill="#64748b" text-anchor="middle" font-weight="400">c4</text>
<circle cx="675.4" cy="258.1" r="3.8" fill="#2563eb" stroke="#2563eb" stroke-width="1.6"/>
<text x="675.4" y="249.1" font-size="8.5" fill="#64748b" text-anchor="middle" font-weight="400">c8</text>
<circle cx="696.6" cy="264.7" r="3.8" fill="#2563eb" stroke="#2563eb" stroke-width="1.6"/>
<text x="696.6" y="255.7" font-size="8.5" fill="#64748b" text-anchor="middle" font-weight="400">c12</text>
<circle cx="692.4" cy="263.4" r="3.8" fill="#2563eb" stroke="#2563eb" stroke-width="1.6"/>
<text x="692.4" y="254.4" font-size="8.5" fill="#64748b" text-anchor="middle" font-weight="400">c16</text>
<text x="700.4" y="267.4" font-size="9.5" fill="#2563eb" text-anchor="start" font-weight="600">GET · chain 축</text>
<path d="M 574.9,219.5 L 624.9,240.5 L 665.8,255.0 L 694.3,263.9" fill="none" stroke="#2563eb" stroke-width="2.0" stroke-dasharray="4 3"/>
<circle cx="574.9" cy="219.5" r="3.8" fill="white" stroke="#2563eb" stroke-width="1.6"/>
<text x="574.9" y="210.5" font-size="8.5" fill="#64748b" text-anchor="middle" font-weight="400">r1</text>
<circle cx="624.9" cy="240.5" r="3.8" fill="white" stroke="#2563eb" stroke-width="1.6"/>
<text x="624.9" y="231.5" font-size="8.5" fill="#64748b" text-anchor="middle" font-weight="400">r2</text>
<circle cx="665.8" cy="255.0" r="3.8" fill="white" stroke="#2563eb" stroke-width="1.6"/>
<text x="665.8" y="246.0" font-size="8.5" fill="#64748b" text-anchor="middle" font-weight="400">r4</text>
<circle cx="694.3" cy="263.9" r="3.8" fill="white" stroke="#2563eb" stroke-width="1.6"/>
<text x="694.3" y="254.9" font-size="8.5" fill="#64748b" text-anchor="middle" font-weight="400">r12</text>
<text x="702.3" y="267.9" font-size="9.5" fill="#2563eb" text-anchor="start" font-weight="600">GET · reap 축</text>
<path d="M 534.3,199.4 L 557.1,211.1 L 576.7,220.3 L 586.2,224.6 L 585.0,224.1 L 585.2,224.2" fill="none" stroke="#ea580c" stroke-width="2.0"/>
<circle cx="534.3" cy="199.4" r="3.8" fill="#ea580c" stroke="#ea580c" stroke-width="1.6"/>
<text x="534.3" y="190.4" font-size="8.5" fill="#64748b" text-anchor="middle" font-weight="400">c1</text>
<circle cx="557.1" cy="211.1" r="3.8" fill="#ea580c" stroke="#ea580c" stroke-width="1.6"/>
<text x="557.1" y="202.1" font-size="8.5" fill="#64748b" text-anchor="middle" font-weight="400">c2</text>
<circle cx="576.7" cy="220.3" r="3.8" fill="#ea580c" stroke="#ea580c" stroke-width="1.6"/>
<text x="576.7" y="211.3" font-size="8.5" fill="#64748b" text-anchor="middle" font-weight="400">c4</text>
<circle cx="586.2" cy="224.6" r="3.8" fill="#ea580c" stroke="#ea580c" stroke-width="1.6"/>
<text x="586.2" y="215.6" font-size="8.5" fill="#64748b" text-anchor="middle" font-weight="400">c8</text>
<circle cx="585.0" cy="224.1" r="3.8" fill="#ea580c" stroke="#ea580c" stroke-width="1.6"/>
<text x="585.0" y="215.1" font-size="8.5" fill="#64748b" text-anchor="middle" font-weight="400">c12</text>
<circle cx="585.2" cy="224.2" r="3.8" fill="#ea580c" stroke="#ea580c" stroke-width="1.6"/>
<text x="585.2" y="215.2" font-size="8.5" fill="#64748b" text-anchor="middle" font-weight="400">c16</text>
<text x="593.2" y="228.2" font-size="9.5" fill="#ea580c" text-anchor="start" font-weight="600">MIX · chain 축</text>
<path d="M 519.1,190.9 L 550.2,207.6 L 577.8,220.8 L 582.8,223.1" fill="none" stroke="#ea580c" stroke-width="2.0" stroke-dasharray="4 3"/>
<circle cx="519.1" cy="190.9" r="3.8" fill="white" stroke="#ea580c" stroke-width="1.6"/>
<text x="519.1" y="181.9" font-size="8.5" fill="#64748b" text-anchor="middle" font-weight="400">r1</text>
<circle cx="550.2" cy="207.6" r="3.8" fill="white" stroke="#ea580c" stroke-width="1.6"/>
<text x="550.2" y="198.6" font-size="8.5" fill="#64748b" text-anchor="middle" font-weight="400">r2</text>
<circle cx="577.8" cy="220.8" r="3.8" fill="white" stroke="#ea580c" stroke-width="1.6"/>
<text x="577.8" y="211.8" font-size="8.5" fill="#64748b" text-anchor="middle" font-weight="400">r4</text>
<circle cx="582.8" cy="223.1" r="3.8" fill="white" stroke="#ea580c" stroke-width="1.6"/>
<text x="582.8" y="214.1" font-size="8.5" fill="#64748b" text-anchor="middle" font-weight="400">r12</text>
<text x="590.8" y="227.1" font-size="9.5" fill="#ea580c" text-anchor="start" font-weight="600">MIX · reap 축</text>
<rect x="88.0" y="36.0" width="664.0" height="75" fill="#f8fafc" stroke="#cbd5e1" stroke-width="1" rx="3"/>
<text x="96.0" y="51.0" font-size="9.5" fill="#0f172a" text-anchor="start" font-weight="600">달리한 것: 배칭 노브 두 개. 실선 = chain 1~16 (reap=8 고정),</text>
<text x="96.0" y="64.0" font-size="9.5" fill="#64748b" text-anchor="start" font-weight="400">           파선 = reap 1~12 (chain=8 고정). 그 외 운영값 고정</text>
<text x="96.0" y="77.0" font-size="9.5" fill="#64748b" text-anchor="start" font-weight="400">점 = 셀 하나(30초, pipe=256). 점 옆 = 그 셀의 노브 값</text>
<text x="96.0" y="90.0" font-size="9.5" fill="#64748b" text-anchor="start" font-weight="400">파랑 GET-only · 주황 1:9 혼합.  x 처리량 · y memtier avg 지연</text>
<text x="96.0" y="103.0" font-size="9.5" fill="#64748b" text-anchor="start" font-weight="400">두 축이 같은 점(c8=r8)에서 만난다 — 거기가 현 운영값이다</text>
</svg>